# MagicaVoxel @ ephtracy

# material
mtllib goldoon.mtl
usemtl palette

# normals
vn -1 0 0
vn 1 0 0
vn 0 0 1
vn 0 0 -1
vn 0 -1 0
vn 0 1 0

# texcoords
vt 0.158203 0.5
vt 0.220703 0.5
vt 0.470703 0.5
vt 0.763672 0.5

# verts and faces
v -1.5 0 1.5
v -1.5 0 -1.5
v -1.5 3 1.5
v -1.5 3 -1.5
v -1.5 6 0.5
v -1.5 6 -0.5
v -1.5 7 0.5
v -1.5 7 -0.5
f -6/3/1 -7/3/1 -8/3/1
f -5/3/1 -7/3/1 -6/3/1
f -2/2/1 -3/2/1 -4/2/1
f -1/2/1 -3/2/1 -2/2/1
v -0.5 3 0.5
v -0.5 3 -0.5
v -0.5 6 1.5
v -0.5 6 0.5
v -0.5 6 -0.5
v -0.5 6 -1.5
v -0.5 7 1.5
v -0.5 7 0.5
v -0.5 7 -0.5
v -0.5 7 -1.5
v -0.5 8 0.5
v -0.5 8 -0.5
f -9/4/1 -11/4/1 -12/4/1
f -8/4/1 -11/4/1 -9/4/1
f -6/1/1 -9/1/1 -10/1/1
f -5/1/1 -9/1/1 -6/1/1
f -4/1/1 -7/1/1 -8/1/1
f -3/1/1 -7/1/1 -4/1/1
f -2/2/1 -4/2/1 -5/2/1
f -1/2/1 -4/2/1 -2/2/1
v 0.5 3 0.5
v 0.5 3 -0.5
v 0.5 6 1.5
v 0.5 6 0.5
v 0.5 6 -0.5
v 0.5 6 -1.5
v 0.5 7 1.5
v 0.5 7 0.5
v 0.5 7 -0.5
v 0.5 7 -1.5
v 0.5 8 0.5
v 0.5 8 -0.5
f -12/4/2 -11/4/2 -9/4/2
f -9/4/2 -11/4/2 -8/4/2
f -10/1/2 -9/1/2 -6/1/2
f -6/1/2 -9/1/2 -5/1/2
f -8/1/2 -7/1/2 -4/1/2
f -4/1/2 -7/1/2 -3/1/2
f -5/2/2 -4/2/2 -2/2/2
f -2/2/2 -4/2/2 -1/2/2
v 1.5 0 1.5
v 1.5 0 -1.5
v 1.5 3 1.5
v 1.5 3 -1.5
v 1.5 6 0.5
v 1.5 6 -0.5
v 1.5 7 0.5
v 1.5 7 -0.5
f -8/3/2 -7/3/2 -6/3/2
f -6/3/2 -7/3/2 -5/3/2
f -4/2/2 -3/2/2 -2/2/2
f -2/2/2 -3/2/2 -1/2/2
v -1.5 0 1.5
v -1.5 3 1.5
v -0.5 6 1.5
v -0.5 7 1.5
v 0.5 6 1.5
v 0.5 7 1.5
v 1.5 0 1.5
v 1.5 3 1.5
f -4/1/3 -5/1/3 -6/1/3
f -3/1/3 -5/1/3 -4/1/3
f -2/3/3 -7/3/3 -8/3/3
f -1/3/3 -7/3/3 -2/3/3
v -1.5 6 0.5
v -1.5 7 0.5
v -0.5 3 0.5
v -0.5 6 0.5
v -0.5 7 0.5
v -0.5 8 0.5
v 0.5 3 0.5
v 0.5 6 0.5
v 0.5 7 0.5
v 0.5 8 0.5
v 1.5 6 0.5
v 1.5 7 0.5
f -9/2/3 -11/2/3 -12/2/3
f -8/2/3 -11/2/3 -9/2/3
f -6/4/3 -9/4/3 -10/4/3
f -5/4/3 -9/4/3 -6/4/3
f -4/2/3 -7/2/3 -8/2/3
f -3/2/3 -7/2/3 -4/2/3
f -2/2/3 -4/2/3 -5/2/3
f -1/2/3 -4/2/3 -2/2/3
v -1.5 6 -0.5
v -1.5 7 -0.5
v -0.5 3 -0.5
v -0.5 6 -0.5
v -0.5 7 -0.5
v -0.5 8 -0.5
v 0.5 3 -0.5
v 0.5 6 -0.5
v 0.5 7 -0.5
v 0.5 8 -0.5
v 1.5 6 -0.5
v 1.5 7 -0.5
f -12/2/4 -11/2/4 -9/2/4
f -9/2/4 -11/2/4 -8/2/4
f -10/4/4 -9/4/4 -6/4/4
f -6/4/4 -9/4/4 -5/4/4
f -8/2/4 -7/2/4 -4/2/4
f -4/2/4 -7/2/4 -3/2/4
f -5/2/4 -4/2/4 -2/2/4
f -2/2/4 -4/2/4 -1/2/4
v -1.5 0 -1.5
v -1.5 3 -1.5
v -0.5 6 -1.5
v -0.5 7 -1.5
v 0.5 6 -1.5
v 0.5 7 -1.5
v 1.5 0 -1.5
v 1.5 3 -1.5
f -6/1/4 -5/1/4 -4/1/4
f -4/1/4 -5/1/4 -3/1/4
f -8/3/4 -7/3/4 -2/3/4
f -2/3/4 -7/3/4 -1/3/4
v -1.5 0 1.5
v 1.5 0 1.5
v -1.5 0 -1.5
v 1.5 0 -1.5
f -2/3/5 -3/3/5 -4/3/5
f -1/3/5 -3/3/5 -2/3/5
v -0.5 6 1.5
v 0.5 6 1.5
v -1.5 6 0.5
v -0.5 6 0.5
v 0.5 6 0.5
v 1.5 6 0.5
v -1.5 6 -0.5
v -0.5 6 -0.5
v 0.5 6 -0.5
v 1.5 6 -0.5
v -0.5 6 -1.5
v 0.5 6 -1.5
f -9/1/5 -11/1/5 -12/1/5
f -8/1/5 -11/1/5 -9/1/5
f -6/2/5 -9/2/5 -10/2/5
f -5/2/5 -9/2/5 -6/2/5
f -4/2/5 -7/2/5 -8/2/5
f -3/2/5 -7/2/5 -4/2/5
f -2/1/5 -4/1/5 -5/1/5
f -1/1/5 -4/1/5 -2/1/5
v -1.5 3 1.5
v 1.5 3 1.5
v -0.5 3 0.5
v 0.5 3 0.5
v -0.5 3 -0.5
v 0.5 3 -0.5
v -1.5 3 -1.5
v 1.5 3 -1.5
f -8/3/6 -7/3/6 -6/3/6
f -6/3/6 -7/3/6 -5/3/6
f -8/3/6 -6/3/6 -4/3/6
f -5/3/6 -7/3/6 -3/3/6
f -8/3/6 -4/3/6 -2/3/6
f -4/3/6 -3/3/6 -2/3/6
f -3/3/6 -7/3/6 -1/3/6
f -2/3/6 -3/3/6 -1/3/6
v -0.5 7 1.5
v 0.5 7 1.5
v -1.5 7 0.5
v -0.5 7 0.5
v 0.5 7 0.5
v 1.5 7 0.5
v -1.5 7 -0.5
v -0.5 7 -0.5
v 0.5 7 -0.5
v 1.5 7 -0.5
v -0.5 7 -1.5
v 0.5 7 -1.5
f -12/1/6 -11/1/6 -9/1/6
f -9/1/6 -11/1/6 -8/1/6
f -10/2/6 -9/2/6 -6/2/6
f -6/2/6 -9/2/6 -5/2/6
f -8/2/6 -7/2/6 -4/2/6
f -4/2/6 -7/2/6 -3/2/6
f -5/1/6 -4/1/6 -2/1/6
f -2/1/6 -4/1/6 -1/1/6
v -0.5 8 0.5
v 0.5 8 0.5
v -0.5 8 -0.5
v 0.5 8 -0.5
f -4/2/6 -3/2/6 -2/2/6
f -2/2/6 -3/2/6 -1/2/6
