# MagicaVoxel @ ephtracy

# material
mtllib sandali2.mtl
usemtl palette

# normals
vn -1 0 0
vn 1 0 0
vn 0 0 1
vn 0 0 -1
vn 0 -1 0
vn 0 1 0

# texcoords
vt 0.193359 0.5
vt 0.966797 0.5

# verts and faces
v -4.5 0 3.5
v -4.5 0 2.5
v -4.5 0 -2.5
v -4.5 0 -3.5
v -4.5 4 2.5
v -4.5 4 -2.5
v -4.5 5 2.5
v -4.5 5 -3.5
v -4.5 10 3.5
v -4.5 10 2.5
v -4.5 11 3.5
v -4.5 11 2.5
v -4.5 13 3.5
v -4.5 13 2.5
f -10/2/1 -13/2/1 -14/2/1
f -9/2/1 -11/2/1 -12/2/1
f -8/2/1 -10/2/1 -14/2/1
f -8/2/1 -9/2/1 -10/2/1
f -7/2/1 -11/2/1 -9/2/1
f -7/2/1 -9/2/1 -8/2/1
f -6/2/1 -8/2/1 -14/2/1
f -5/2/1 -8/2/1 -6/2/1
f -4/1/1 -5/1/1 -6/1/1
f -3/1/1 -5/1/1 -4/1/1
f -2/2/1 -3/2/1 -4/2/1
f -1/2/1 -3/2/1 -2/2/1
v 3.5 0 3.5
v 3.5 0 2.5
v 3.5 0 -2.5
v 3.5 0 -3.5
v 3.5 4 3.5
v 3.5 4 2.5
v 3.5 4 -2.5
v 3.5 4 -3.5
f -4/2/1 -7/2/1 -8/2/1
f -3/2/1 -7/2/1 -4/2/1
f -2/2/1 -5/2/1 -6/2/1
f -1/2/1 -5/2/1 -2/2/1
v -3.5 0 3.5
v -3.5 0 2.5
v -3.5 0 -2.5
v -3.5 0 -3.5
v -3.5 4 3.5
v -3.5 4 2.5
v -3.5 4 -2.5
v -3.5 4 -3.5
f -8/2/2 -7/2/2 -4/2/2
f -4/2/2 -7/2/2 -3/2/2
f -6/2/2 -5/2/2 -2/2/2
f -2/2/2 -5/2/2 -1/2/2
v 4.5 0 3.5
v 4.5 0 2.5
v 4.5 0 -2.5
v 4.5 0 -3.5
v 4.5 4 2.5
v 4.5 4 -2.5
v 4.5 5 2.5
v 4.5 5 -3.5
v 4.5 10 3.5
v 4.5 10 2.5
v 4.5 11 3.5
v 4.5 11 2.5
v 4.5 13 3.5
v 4.5 13 2.5
f -14/2/2 -13/2/2 -10/2/2
f -12/2/2 -11/2/2 -9/2/2
f -14/2/2 -10/2/2 -8/2/2
f -10/2/2 -9/2/2 -8/2/2
f -9/2/2 -11/2/2 -7/2/2
f -8/2/2 -9/2/2 -7/2/2
f -14/2/2 -8/2/2 -6/2/2
f -6/2/2 -8/2/2 -5/2/2
f -6/1/2 -5/1/2 -4/1/2
f -4/1/2 -5/1/2 -3/1/2
f -4/2/2 -3/2/2 -2/2/2
f -2/2/2 -3/2/2 -1/2/2
v -4.5 0 3.5
v -4.5 10 3.5
v -4.5 11 3.5
v -4.5 13 3.5
v -3.5 0 3.5
v -3.5 4 3.5
v -3.5 9 3.5
v -3.5 10 3.5
v -3.5 11 3.5
v -2.5 9 3.5
v -2.5 10 3.5
v -2.5 11 3.5
v -1.5 9 3.5
v -1.5 10 3.5
v -1.5 11 3.5
v -0.5 9 3.5
v -0.5 10 3.5
v -0.5 11 3.5
v 0.5 9 3.5
v 0.5 10 3.5
v 0.5 11 3.5
v 1.5 9 3.5
v 1.5 10 3.5
v 1.5 11 3.5
v 2.5 9 3.5
v 2.5 10 3.5
v 2.5 11 3.5
v 3.5 0 3.5
v 3.5 4 3.5
v 3.5 9 3.5
v 3.5 10 3.5
v 3.5 11 3.5
v 4.5 0 3.5
v 4.5 10 3.5
v 4.5 11 3.5
v 4.5 13 3.5
f -32/2/3 -35/2/3 -36/2/3
f -31/2/3 -35/2/3 -32/2/3
f -30/2/3 -35/2/3 -31/2/3
f -29/1/3 -34/1/3 -35/1/3
f -29/2/3 -35/2/3 -30/2/3
f -28/2/3 -33/2/3 -34/2/3
f -28/1/3 -34/1/3 -29/1/3
f -27/1/3 -29/1/3 -30/1/3
f -27/2/3 -30/2/3 -31/2/3
f -26/2/3 -28/2/3 -29/2/3
f -26/1/3 -29/1/3 -27/1/3
f -25/2/3 -33/2/3 -28/2/3
f -25/2/3 -28/2/3 -26/2/3
f -24/2/3 -26/2/3 -27/2/3
f -24/2/3 -27/2/3 -31/2/3
f -23/1/3 -25/1/3 -26/1/3
f -23/2/3 -26/2/3 -24/2/3
f -22/2/3 -33/2/3 -25/2/3
f -22/1/3 -25/1/3 -23/1/3
f -21/1/3 -23/1/3 -24/1/3
f -21/2/3 -24/2/3 -31/2/3
f -20/2/3 -22/2/3 -23/2/3
f -20/1/3 -23/1/3 -21/1/3
f -19/2/3 -33/2/3 -22/2/3
f -19/2/3 -22/2/3 -20/2/3
f -18/2/3 -20/2/3 -21/2/3
f -18/2/3 -21/2/3 -31/2/3
f -17/1/3 -19/1/3 -20/1/3
f -17/2/3 -20/2/3 -18/2/3
f -16/2/3 -33/2/3 -19/2/3
f -16/1/3 -19/1/3 -17/1/3
f -15/1/3 -17/1/3 -18/1/3
f -15/2/3 -18/2/3 -31/2/3
f -14/2/3 -16/2/3 -17/2/3
f -14/1/3 -17/1/3 -15/1/3
f -13/2/3 -33/2/3 -16/2/3
f -13/2/3 -16/2/3 -14/2/3
f -12/2/3 -14/2/3 -15/2/3
f -12/2/3 -15/2/3 -31/2/3
f -11/1/3 -13/1/3 -14/1/3
f -11/2/3 -14/2/3 -12/2/3
f -10/2/3 -33/2/3 -13/2/3
f -10/1/3 -13/1/3 -11/1/3
f -8/2/3 -12/2/3 -31/2/3
f -7/1/3 -11/1/3 -12/1/3
f -7/2/3 -12/2/3 -8/2/3
f -6/2/3 -10/2/3 -11/2/3
f -6/1/3 -11/1/3 -7/1/3
f -5/2/3 -33/2/3 -10/2/3
f -5/2/3 -10/2/3 -6/2/3
f -4/2/3 -8/2/3 -9/2/3
f -4/2/3 -6/2/3 -7/2/3
f -4/2/3 -7/2/3 -8/2/3
f -3/1/3 -5/1/3 -6/1/3
f -3/2/3 -6/2/3 -4/2/3
f -2/2/3 -33/2/3 -5/2/3
f -2/1/3 -5/1/3 -3/1/3
f -1/2/3 -33/2/3 -2/2/3
v -4.5 0 -2.5
v -4.5 4 -2.5
v -3.5 0 -2.5
v -3.5 4 -2.5
v 3.5 0 -2.5
v 3.5 4 -2.5
v 4.5 0 -2.5
v 4.5 4 -2.5
f -6/2/3 -7/2/3 -8/2/3
f -5/2/3 -7/2/3 -6/2/3
f -2/2/3 -3/2/3 -4/2/3
f -1/2/3 -3/2/3 -2/2/3
v -4.5 0 2.5
v -4.5 4 2.5
v -4.5 5 2.5
v -4.5 10 2.5
v -4.5 11 2.5
v -4.5 13 2.5
v -3.5 0 2.5
v -3.5 4 2.5
v -3.5 9 2.5
v -3.5 10 2.5
v -3.5 11 2.5
v -2.5 9 2.5
v -2.5 10 2.5
v -2.5 11 2.5
v -1.5 9 2.5
v -1.5 10 2.5
v -1.5 11 2.5
v -0.5 9 2.5
v -0.5 10 2.5
v -0.5 11 2.5
v 0.5 9 2.5
v 0.5 10 2.5
v 0.5 11 2.5
v 1.5 9 2.5
v 1.5 10 2.5
v 1.5 11 2.5
v 2.5 9 2.5
v 2.5 10 2.5
v 2.5 11 2.5
v 3.5 0 2.5
v 3.5 4 2.5
v 3.5 9 2.5
v 3.5 10 2.5
v 3.5 11 2.5
v 4.5 0 2.5
v 4.5 4 2.5
v 4.5 5 2.5
v 4.5 10 2.5
v 4.5 11 2.5
v 4.5 13 2.5
f -40/2/4 -39/2/4 -34/2/4
f -34/2/4 -39/2/4 -33/2/4
f -38/2/4 -37/2/4 -32/2/4
f -37/1/4 -36/1/4 -31/1/4
f -32/2/4 -37/2/4 -31/2/4
f -36/2/4 -35/2/4 -30/2/4
f -31/1/4 -36/1/4 -30/1/4
f -32/1/4 -31/1/4 -29/1/4
f -38/2/4 -32/2/4 -29/2/4
f -31/2/4 -30/2/4 -28/2/4
f -29/1/4 -31/1/4 -28/1/4
f -30/2/4 -35/2/4 -27/2/4
f -28/2/4 -30/2/4 -27/2/4
f -29/2/4 -28/2/4 -26/2/4
f -38/2/4 -29/2/4 -26/2/4
f -28/1/4 -27/1/4 -25/1/4
f -26/2/4 -28/2/4 -25/2/4
f -27/2/4 -35/2/4 -24/2/4
f -25/1/4 -27/1/4 -24/1/4
f -26/1/4 -25/1/4 -23/1/4
f -38/2/4 -26/2/4 -23/2/4
f -25/2/4 -24/2/4 -22/2/4
f -23/1/4 -25/1/4 -22/1/4
f -24/2/4 -35/2/4 -21/2/4
f -22/2/4 -24/2/4 -21/2/4
f -23/2/4 -22/2/4 -20/2/4
f -38/2/4 -23/2/4 -20/2/4
f -22/1/4 -21/1/4 -19/1/4
f -20/2/4 -22/2/4 -19/2/4
f -21/2/4 -35/2/4 -18/2/4
f -19/1/4 -21/1/4 -18/1/4
f -20/1/4 -19/1/4 -17/1/4
f -38/2/4 -20/2/4 -17/2/4
f -19/2/4 -18/2/4 -16/2/4
f -17/1/4 -19/1/4 -16/1/4
f -18/2/4 -35/2/4 -15/2/4
f -16/2/4 -18/2/4 -15/2/4
f -17/2/4 -16/2/4 -14/2/4
f -38/2/4 -17/2/4 -14/2/4
f -16/1/4 -15/1/4 -13/1/4
f -14/2/4 -16/2/4 -13/2/4
f -15/2/4 -35/2/4 -12/2/4
f -13/1/4 -15/1/4 -12/1/4
f -14/1/4 -13/1/4 -9/1/4
f -38/2/4 -14/2/4 -9/2/4
f -13/2/4 -12/2/4 -8/2/4
f -9/1/4 -13/1/4 -8/1/4
f -12/2/4 -35/2/4 -7/2/4
f -8/2/4 -12/2/4 -7/2/4
f -11/2/4 -10/2/4 -6/2/4
f -6/2/4 -10/2/4 -5/2/4
f -9/2/4 -8/2/4 -4/2/4
f -38/2/4 -9/2/4 -4/2/4
f -8/1/4 -7/1/4 -3/1/4
f -4/2/4 -8/2/4 -3/2/4
f -7/2/4 -35/2/4 -2/2/4
f -3/1/4 -7/1/4 -2/1/4
f -2/2/4 -35/2/4 -1/2/4
v -4.5 0 -3.5
v -4.5 5 -3.5
v -3.5 0 -3.5
v -3.5 4 -3.5
v 3.5 0 -3.5
v 3.5 4 -3.5
v 4.5 0 -3.5
v 4.5 5 -3.5
f -8/2/4 -7/2/4 -6/2/4
f -6/2/4 -7/2/4 -5/2/4
f -5/2/4 -7/2/4 -3/2/4
f -4/2/4 -3/2/4 -2/2/4
f -3/2/4 -7/2/4 -1/2/4
f -2/2/4 -3/2/4 -1/2/4
v -4.5 0 3.5
v -3.5 0 3.5
v 3.5 0 3.5
v 4.5 0 3.5
v -4.5 0 2.5
v -3.5 0 2.5
v 3.5 0 2.5
v 4.5 0 2.5
v -4.5 0 -2.5
v -3.5 0 -2.5
v 3.5 0 -2.5
v 4.5 0 -2.5
v -4.5 0 -3.5
v -3.5 0 -3.5
v 3.5 0 -3.5
v 4.5 0 -3.5
f -12/2/5 -15/2/5 -16/2/5
f -11/2/5 -15/2/5 -12/2/5
f -10/2/5 -13/2/5 -14/2/5
f -9/2/5 -13/2/5 -10/2/5
f -4/2/5 -7/2/5 -8/2/5
f -3/2/5 -7/2/5 -4/2/5
f -2/2/5 -5/2/5 -6/2/5
f -1/2/5 -5/2/5 -2/2/5
v -3.5 4 3.5
v 3.5 4 3.5
v -4.5 4 2.5
v -3.5 4 2.5
v 3.5 4 2.5
v 4.5 4 2.5
v -4.5 4 -2.5
v -3.5 4 -2.5
v 3.5 4 -2.5
v 4.5 4 -2.5
v -3.5 4 -3.5
v 3.5 4 -3.5
f -9/2/5 -11/2/5 -12/2/5
f -8/2/5 -11/2/5 -9/2/5
f -6/2/5 -9/2/5 -10/2/5
f -6/2/5 -7/2/5 -8/2/5
f -6/2/5 -8/2/5 -9/2/5
f -5/2/5 -7/2/5 -6/2/5
f -4/2/5 -7/2/5 -5/2/5
f -3/2/5 -7/2/5 -4/2/5
f -2/2/5 -4/2/5 -5/2/5
f -1/2/5 -4/2/5 -2/2/5
v -4.5 5 2.5
v 4.5 5 2.5
v -4.5 5 -3.5
v 4.5 5 -3.5
f -4/2/6 -3/2/6 -2/2/6
f -2/2/6 -3/2/6 -1/2/6
v -4.5 13 3.5
v 4.5 13 3.5
v -4.5 13 2.5
v 4.5 13 2.5
f -4/2/6 -3/2/6 -2/2/6
f -2/2/6 -3/2/6 -1/2/6
